<?xml version="1.0" encoding="UTF-8"?>
<svg xmlns="http://www.w3.org/2000/svg" xmlns:xlink="http://www.w3.org/1999/xlink" width="114.98pt" height="114.98pt" viewBox="0 0 114.98 114.98" version="1.2">
<defs>
<clipPath id="clip-1664789848566001-1">
  <path d="M 0 0 L 114.960938 0 L 114.960938 114.960938 L 0 114.960938 Z M 0 0 "/>
</clipPath>
<clipPath id="clip-1664789848566001-2">
  <path d="M 108 51 L 114.960938 51 L 114.960938 67 L 108 67 Z M 108 51 "/>
</clipPath>
<clipPath id="clip-1664789848566001-3">
  <path d="M 112 59 L 114.960938 59 L 114.960938 64 L 112 64 Z M 112 59 "/>
</clipPath>
</defs>
<g id="surface1">
<g clip-path="url(#clip-1664789848566001-1)" clip-rule="nonzero">
<path style="fill:none;stroke-width:1.59404;stroke-linecap:butt;stroke-linejoin:miter;stroke:rgb(0%,0%,0%);stroke-opacity:1;stroke-miterlimit:10;" d="M 56.693921 -0.000467092 C 56.693921 31.309666 31.3106 56.692986 0.000467092 56.692986 C -31.309666 56.692986 -56.692986 31.309666 -56.692986 -0.000467092 C -56.692986 -31.3106 -31.309666 -56.693921 0.000467092 -56.693921 C 31.3106 -56.693921 56.693921 -31.3106 56.693921 -0.000467092 Z M 56.693921 -0.000467092 " transform="matrix(0.999826,0,0,-0.999826,57.480002,57.480002)"/>
</g>
<g clip-path="url(#clip-1664789848566001-2)" clip-rule="nonzero">
<path style="fill:none;stroke-width:0.3985;stroke-linecap:butt;stroke-linejoin:miter;stroke:rgb(0%,0%,0%);stroke-opacity:1;stroke-miterlimit:10;" d="M 56.693921 -0.000467092 C 56.795501 -1.973466 56.795501 -3.958187 56.881453 -2.352439 " transform="matrix(0.999826,0,0,-0.999826,57.480002,57.480002)"/>
</g>
<g clip-path="url(#clip-1664789848566001-3)" clip-rule="nonzero">
<path style=" stroke:none;fill-rule:nonzero;fill:rgb(0%,0%,0%);fill-opacity:1;" d="M 114.164063 63.414063 C 114.417969 62.363281 115.105469 60.667969 115.863281 59.511719 L 112.878906 59.355469 C 113.515625 60.585938 114.019531 62.34375 114.164063 63.414063 "/>
</g>
</g>
</svg>

